<svg version="1.1" xmlns="http://www.w3.org/2000/svg" viewBox="0 0 302.82718995572066 479.0859375" width="605.6543799114413" height="958.171875">
  <!-- svg-source:excalidraw -->
  
  <defs>
    <style>
      @font-face {
        font-family: "Virgil";
        src: url("https://excalidraw.com/Virgil.woff2");
      }
      @font-face {
        font-family: "Cascadia";
        src: url("https://excalidraw.com/Cascadia.woff2");
      }
    </style>
  </defs>
  <rect x="0" y="0" width="302.82718995572066" height="479.0859375" fill="#ffffff"></rect><g stroke-linecap="round" transform="translate(132.49906495572066 10) rotate(0 77.5390625 50.279296875)"><path d="M0 0 C0 0, 0 0, 0 0 M0 0 C0 0, 0 0, 0 0 M-0.77 6.81 C1.22 3.93, 3.52 2.14, 4.72 0.79 M-0.65 6.05 C1.45 4.87, 2.89 2.59, 4.73 0.02 M0.04 11.66 C2.99 8.23, 5.3 4.98, 10.16 0.44 M0.8 11.32 C4.65 7.33, 8.1 3.53, 10.33 0.7 M0.6 18.72 C5.55 10.81, 11.83 4.95, 14.42 -1.59 M-0.08 17.47 C6.22 12.13, 10.67 5.65, 16.56 0.34 M-0.39 23.98 C8.61 14.22, 15.84 7.37, 19.3 1.42 M-0.12 24.57 C6.83 16.77, 11.89 10.34, 20.76 -0.73 M-1.06 29.54 C10.94 21.84, 19.5 8.19, 28.17 2.03 M-0.4 31.19 C9.08 20.08, 17.02 11.77, 26.27 -0.64 M-2.21 35.39 C7.31 25.59, 17.12 17.66, 33.57 0.57 M-1.14 36.62 C10.16 24.63, 20.5 13.33, 31.67 -0.4 M0.77 41.36 C11.02 30.82, 17.43 21.26, 37.99 -0.87 M0.48 41.98 C9.71 32.85, 17.73 22.63, 37.33 -0.56 M-1.93 49.35 C7.02 39.91, 18.83 30.25, 41.21 -0.57 M0.21 49.54 C12.33 35.27, 22.23 23.51, 42.65 -0.28 M0.19 53.85 C13.5 39.09, 26.48 27.04, 49.17 0.71 M-0.66 54.54 C11.32 41.95, 20.22 31.05, 46.7 -0.13 M-1.2 59.89 C17.65 38.55, 35.07 20.41, 53.37 1.6 M-0.66 60.24 C16.93 42.67, 33.89 22.8, 53.45 -1.14 M1.47 65.61 C12.38 53.6, 25.67 39.66, 59.75 1.97 M0.41 67.74 C21.04 41.91, 41.92 18.33, 58.43 0.34 M-0.2 72.43 C15.72 56.99, 28.42 40.48, 64.04 0.86 M-0.56 73.28 C18.25 52.67, 37.1 31.07, 63.93 -0.34 M1.63 79.16 C20.84 54.25, 46.22 26.91, 68.63 -1.7 M-0.02 79.59 C21.68 52.6, 44.58 26.71, 69.67 0.96 M1.7 84.61 C17.72 67.43, 32.23 46.54, 74 1.19 M0.77 85.64 C20.59 63.77, 39.41 41.36, 74.02 0.19 M-1.43 89.5 C16.66 69.94, 34.85 47.39, 79.51 1.25 M0.45 91.77 C18.85 67.95, 39.56 45.53, 78.65 0.22 M1.3 99.02 C20.82 71.88, 44.52 47.27, 86.86 0.76 M0.05 97.46 C30.75 63.24, 60.67 28.55, 85.75 -0.11 M2.95 103.51 C33.56 63.39, 65.99 26.23, 88.89 -1.41 M2.3 101.12 C22.69 75.37, 45.14 51, 90.7 1.04 M5.38 99.83 C37.33 67.9, 68.82 32.98, 97.03 -0.08 M6.25 100.7 C36.36 67.53, 64.22 35.02, 95.26 -0.38 M10.8 102.75 C45.9 62.15, 81.16 19.34, 102.1 -1.74 M12.64 102.3 C45.55 62.94, 80.2 22.26, 100.26 0.74 M16.41 102.53 C38.45 76.89, 58.27 53.51, 105.74 1.2 M18.33 100.85 C51.85 62.81, 85.11 25.88, 106.77 -0.33 M23.93 102.58 C54.6 67.15, 84.16 31.79, 113.26 0.39 M23.65 101.03 C44.69 76.25, 65.61 50.66, 110.83 -0.97 M26.36 102.04 C59.82 67.4, 86.71 33.34, 116.38 2.08 M27 103.02 C57.39 69.91, 86.19 35.5, 115.94 0.46 M32.12 101.96 C63.88 64.66, 95.6 31.34, 121.33 1.3 M32.77 101.86 C65.65 63.39, 98.5 25.82, 121.04 0.04 M37.22 103.4 C60.72 77.95, 82.75 50.51, 125.1 -0.03 M39.31 102.72 C62.52 74.83, 88.87 45.24, 126.48 -0.44 M43.97 102.05 C64.53 77.76, 82.96 58.16, 134.06 1.51 M43.52 102.75 C64.1 79.97, 83.38 55.8, 132.58 0.32 M49.85 102.13 C79.62 64.1, 111.86 27.6, 136.92 0.72 M49.45 102.11 C78.44 69.17, 108.78 32.92, 138.25 0.22 M54.9 102.22 C80.88 72.43, 106.33 41.44, 144.03 1.69 M55.54 101.06 C75.01 78.25, 94.28 56.5, 142.26 0.8 M58.57 101.18 C89.09 68.21, 117.59 36.57, 148.32 -0.37 M59.32 103.01 C83.18 74.81, 107.58 48.24, 147.85 0.33 M67.13 100 C86.57 78.86, 107.96 50.94, 152.62 -1.26 M64.55 101.57 C94.74 68.67, 122.98 35.8, 153.97 0.84 M70.52 103.68 C100.47 68.28, 129.78 33.44, 157.26 3.67 M69.95 101.63 C93.36 76.55, 115.19 50.36, 156.65 2.71 M77.71 103.11 C93.11 83.45, 109.62 64.42, 158.8 10.03 M76.37 102.44 C94.92 80.77, 112.93 57.97, 157.49 8.48 M81.63 100.94 C100.81 76.88, 120.04 56.16, 158 13.56 M81.46 102.62 C108.64 69.87, 138.4 35.79, 157.56 13.11 M86.49 101.46 C104.31 81.37, 120.77 62, 157.53 20.28 M86.9 101.26 C112.86 71.81, 137.96 42.42, 156.83 19.36 M92.67 100.48 C114.56 78.95, 133.77 52.87, 155.95 25.35 M91.05 103 C109.63 81.53, 127.4 59.34, 157.99 25.84 M96.13 103.16 C120.07 76.15, 139.71 48.8, 155.9 31.17 M96.15 101.03 C115.32 80.52, 135.38 58.35, 158.44 32.28 M101.22 101.98 C114.46 86.6, 125.15 73.25, 156.18 37.56 M103.02 102.22 C118.98 83.68, 134.57 63.96, 156.23 38.91 M108.11 102.5 C119.74 89.65, 131.89 74.77, 158.55 44.33 M108.22 102.13 C127.86 78.21, 145.93 56.88, 158.61 44.2 M113.65 101.33 C128.18 81.95, 143.29 65.44, 156.55 49.18 M112.76 102.12 C130.2 81.83, 147.79 61.86, 156.69 50 M118.72 99.95 C128.85 92.87, 135.86 81.84, 158.27 58.33 M119.29 102.36 C128.23 90.82, 138.06 80.15, 158.02 57.27 M125.16 102.61 C131.1 93.08, 141.87 82.73, 158.43 64.61 M122.77 100.96 C135.74 86.8, 147.24 73.75, 156.52 63.44 M127.07 102.17 C137.76 94, 146.64 82.11, 158.63 69.66 M129.65 100.94 C137.13 91.94, 146.38 81.31, 156.46 69.75 M135.75 102.05 C142.16 91.76, 153.96 79.29, 157.98 74.47 M134.61 101.4 C140.87 94.67, 146.84 86.58, 156.98 74.98 M139.06 102.02 C143.9 97.7, 146.39 91.78, 158.04 81.29 M139.69 102.48 C145.24 96.06, 149.21 91.07, 156.81 80.59 M146.18 100.21 C146.13 99.11, 150.91 95.25, 157.49 88.24 M144.97 102.47 C149.08 95.88, 154.76 91.42, 156.78 88.46 M150.31 102.87 C152.96 98.26, 155.36 96.42, 156.83 92.22 M149.38 101.94 C150.99 100.33, 153.29 97.94, 157.63 92.72" stroke="#fd7e14" stroke-width="0.5" fill="none"></path><path d="M-0.83 -0.05 C58.15 -0.43, 117.66 0.38, 155.31 -1.63 M-0.67 0.65 C33.67 -0.15, 65.29 0.79, 154.37 0.14 M155.3 -1.87 C152.91 36.48, 154.9 75.74, 156.65 101.28 M155.27 0.42 C154.03 23.02, 154.5 44.99, 155.76 101.06 M157.04 98.71 C98.89 100, 44.2 102.69, 1.82 99.54 M156.02 101.48 C94.55 100.73, 33.54 101.82, 0.95 100.2 M0.44 98.57 C-0.31 63.3, 0.09 28.57, -0.14 0.12 M-0.1 99.64 C-1.32 70.67, -0.95 42.54, 0.5 0.01" stroke="#000000" stroke-width="1" fill="none"></path></g><g transform="translate(137.49906495572066 47.779296875) rotate(0 72.5 12.5)"><text x="72.5" y="18" font-family="Virgil, Segoe UI Emoji" font-size="20px" fill="#000000" text-anchor="middle" style="white-space: pre;" direction="ltr">Model</text></g><g stroke-linecap="round" transform="translate(137.74906495572066 178.642578125) rotate(0 77.5390625 50.279296875)"><path d="M0 0 C0 0, 0 0, 0 0 M0 0 C0 0, 0 0, 0 0 M-0.49 6.54 C0.6 4, 2.57 2.17, 5.13 0.48 M-0.48 6.45 C1.38 3.97, 3.7 1.62, 4.94 0.47 M0.49 10.54 C3.59 7.82, 7.45 4.18, 9.89 -0.46 M-0.61 12.29 C4.21 7.38, 8.23 3.68, 10.82 -0.25 M-0.56 19.97 C3.65 12.77, 9.22 7.42, 17.05 2.02 M-0.53 18.12 C3.93 14.86, 8.03 9.46, 14.74 1.28 M-1.55 22.5 C6.78 15.91, 14.06 7.15, 22.79 -0.13 M-0.02 23.81 C7.31 14.98, 16.95 4.79, 20.59 -0.17 M-0.86 31.01 C4.66 22.67, 10.6 16.01, 24.27 2.19 M-0.87 30.24 C7.23 20.34, 15.84 12.35, 26.38 0.21 M0.53 36.23 C12.43 23.17, 21.26 13.68, 32.15 1.84 M0.22 36.86 C12.32 22.95, 23.84 7.96, 31.05 0.71 M-0.65 40.55 C11.83 28.27, 24.77 15.31, 35.25 1.18 M-0.56 43.09 C10.7 29.64, 22.45 16.91, 37.25 0.19 M-1.87 48.11 C15.11 33.15, 24.95 17.95, 43.96 -2.05 M-0.18 49.64 C12.94 34.61, 24.76 19.43, 42.49 -0.93 M-0.02 55.43 C19.69 33.32, 37.89 13.81, 47.07 -0.83 M-0.23 54.29 C13.58 40.17, 27.01 24.97, 47.89 0.43 M1.43 61.32 C12.15 43.43, 26.02 29.61, 51.2 -1.02 M-0.21 60.98 C16.35 42.88, 31.18 22.95, 53.27 -0.94 M-0.87 65.45 C14.37 53.62, 24.24 36.42, 57.61 0.55 M-1.04 67.61 C22.51 40.41, 45.1 14.86, 57.95 0.53 M2.05 74.5 C25.13 46.99, 48.52 16.96, 65.65 -2.09 M0.92 73.35 C17.01 54.65, 31.47 36.95, 63.83 0.23 M-0.38 80.31 C22.72 48.22, 49.47 22.53, 69.57 1.89 M-0.14 79.97 C24.28 49.19, 50.86 20.56, 68.16 0.48 M0.44 86.47 C18.26 63.06, 37.84 41.04, 73.92 -2.09 M1.05 85.63 C29.18 53.02, 56.15 21.92, 74.69 -0.47 M1.16 90.2 C18.71 69.18, 40.93 43.45, 78.45 -0.06 M-0.51 91.96 C21.49 65.34, 43.14 40.82, 80.37 0.69 M1.21 96.99 C30.55 64.04, 60.66 29.73, 85.43 0.32 M0.49 97.86 C34.51 58.27, 68.23 19.81, 84.5 -0.66 M0.23 101.2 C23.64 75.5, 49.08 49.03, 88.58 -0.34 M0.92 101.3 C26.9 71.39, 54.51 40.24, 89.49 0 M6.95 103.45 C29.37 74.12, 53.9 45.88, 96.4 0.68 M7.83 101.92 C29.82 73.36, 54.62 45.35, 95.97 -0.59 M10.68 102.05 C29.66 82.03, 49.57 59.94, 101.08 -1.84 M11.86 101.59 C31.83 81.25, 48.66 60.12, 101.54 -0.39 M15.96 102.51 C41.34 76.23, 64.57 48.26, 105.87 0.72 M17.61 101.19 C49.76 64.84, 83.67 26.27, 105.91 -1.07 M24.11 103.27 C50.06 70.38, 74.89 39.45, 109.92 0.77 M23.06 101.44 C46.83 74.06, 70.11 47.69, 111.63 -0.84 M27.99 102.26 C61.02 64.8, 93.53 27.65, 115.04 1.1 M28.13 102.71 C58.08 67.28, 88.43 32.83, 116.59 1.24 M32.12 103.05 C49.85 79.47, 69.45 58.87, 121.84 1 M32.57 102.31 C60.64 71.69, 87.37 39.66, 121.98 0.68 M36.87 100.96 C63.94 73.62, 84.9 49.31, 125.88 -1.58 M38.03 101.87 C59.52 77.29, 81.67 52.96, 126.31 0.81 M45.14 101.72 C71.32 70.75, 99.75 37.72, 132.41 0.55 M44.51 101.07 C68.33 72.21, 94.79 43.56, 131.89 0.61 M47.26 103.31 C68.99 82.37, 86.13 60.26, 137.22 1.72 M49.1 102.75 C82.06 64.93, 115.7 26.5, 137.52 -0.21 M56.38 101.83 C83.98 67.64, 112.34 33.94, 142.03 1.28 M55.11 101.97 C83.58 69.17, 110.74 37.09, 143.73 -0.19 M61.3 101.42 C86.34 72.36, 113.03 42.61, 147.35 1.47 M58.83 103.07 C87.27 69.72, 114.15 39.15, 147.41 0.99 M65.89 100.1 C89.17 74.64, 110.97 52.94, 151.88 1.28 M64.67 102.71 C86.96 78.15, 108.5 53.41, 153.02 -0.48 M69.93 103.63 C104 63.93, 139.91 23.48, 156.06 -0.15 M69.86 102.97 C89.01 79.26, 108.4 58.72, 157.95 2.11 M76.52 103.44 C107.1 65.36, 140.88 27.07, 156.76 7.1 M75.62 102.36 C97.41 78.8, 117.15 56.08, 157.1 7.72 M80.91 102.45 C96.36 85.83, 112.21 68.23, 159.38 12.77 M79.88 102.96 C107.87 71.34, 134.25 39.46, 156.65 13.84 M85.93 100.96 C115.68 68.13, 142.14 34.69, 155.43 20.66 M86.44 101.41 C105.52 80.02, 123.94 58.44, 157.59 19.93 M90.81 102.56 C107.6 83.3, 123.94 69, 156.58 27.44 M91.69 102.01 C115.42 76.1, 138.29 48.62, 157.5 27.38 M98.61 99.94 C122.44 75.35, 143.61 48.36, 158.8 32.81 M97.75 101.75 C116.8 76.17, 138.43 52.37, 156.54 32.86 M101.02 100.85 C110.86 89.87, 124.46 77.97, 158.51 37.59 M101.19 101.45 C122.95 77.97, 142.05 55.08, 157.4 37.65 M105.83 101.86 C120.23 88.6, 128.46 75.93, 159.31 42.38 M108.23 100.7 C124.28 83.04, 140.11 65.22, 157.82 43.39 M113.73 102.38 C122.53 90.82, 134.31 78.68, 156.86 49.39 M113.37 101.04 C127.64 85.93, 143.34 67.8, 157.33 51.23 M117.72 102.39 C129.71 89.22, 136.03 80.72, 157.58 57.12 M118.66 100.94 C130.98 87.62, 142.7 72.13, 157.72 57.56 M123.96 100.42 C133.21 92.52, 142.58 79.08, 158.81 62.43 M124.31 102.94 C131.62 92, 139.46 83.69, 157.05 63.36 M127.17 103.36 C137.41 90.67, 148.88 81.11, 156.98 70.73 M129.93 100.61 C136.32 93.69, 142.3 85.04, 157.6 69.55 M135.51 100.4 C138.56 95.06, 144.43 87.51, 158.32 74.51 M133.18 101.71 C141.56 93.29, 149.18 82.89, 158.41 74.7 M137.92 100.83 C143.99 97.81, 149.49 92.54, 155.74 79.33 M139 101.21 C145.05 94.02, 151.37 88.28, 157.96 80.21 M145.01 100.07 C147.26 96.71, 150.9 94.68, 155.61 86.41 M144.27 102.32 C147.61 98.42, 152.32 94.1, 156.72 88.01 M148.56 101.96 C152.26 99.76, 154.06 97.32, 157.53 93.97 M150.02 102.36 C152.07 99.86, 154.81 96.47, 157.22 93.7" stroke="#82c91e" stroke-width="0.5" fill="none"></path><path d="M0.5 1.29 C54.6 1.25, 111.72 -1.54, 157.06 -1.93 M0.48 0.51 C40.36 -0.77, 83.18 0.77, 155.33 -0.6 M154.08 -0.22 C154.11 23.26, 154.4 46.53, 154.81 99.37 M155.63 0.82 C156.21 26.28, 156.25 54.17, 155.42 101.19 M154.66 99.9 C115.08 101.84, 73.52 100.48, 0.44 100.22 M154.38 99.9 C117.86 100.33, 81.29 101.18, -0.28 100.26 M0.39 99.09 C-0.67 60.78, 0.23 20.56, -0.67 1.88 M-0.54 100.87 C-1.13 80.73, -0.03 59.27, 0.04 -0.51" stroke="#000000" stroke-width="1" fill="none"></path></g><g transform="translate(142.74906495572066 216.421875) rotate(0 72.5 12.5)"><text x="72.5" y="18" font-family="Virgil, Segoe UI Emoji" font-size="20px" fill="#000000" text-anchor="middle" style="white-space: pre;" direction="ltr">View</text></g><g stroke-linecap="round"><g transform="translate(211.92936834405543 120.8984375) rotate(0 -0.8615776781458067 26.60827257492116)"><path d="M-0.14 -1.03 C-0.46 7.75, -1.79 43.89, -2.06 53.29 M-1.68 1.04 C-1.58 9.88, 0.5 45.5, 0.33 54.25" stroke="#000000" stroke-width="1" fill="none"></path></g><g transform="translate(211.92936834405543 120.8984375) rotate(0 -0.8615776781458067 26.60827257492116)"><path d="M-11.33 27.9 C-8.49 35.65, -2.22 43.17, 1.87 53.3 M-8.89 28.54 C-7.13 36.42, -2.2 44.98, 0.4 54.18" stroke="#000000" stroke-width="1" fill="none"></path></g><g transform="translate(211.92936834405543 120.8984375) rotate(0 -0.8615776781458067 26.60827257492116)"><path d="M7.28 27.43 C4.8 35.3, 5.77 42.94, 1.87 53.3 M9.72 28.07 C5.42 36.12, 4.29 44.83, 0.4 54.18" stroke="#000000" stroke-width="1" fill="none"></path></g></g><g stroke-linecap="round" transform="translate(171.96000245572066 394.0859375) rotate(0 39.5 37.5)"><path d="M9.09 13.21 C9.09 13.21, 9.09 13.21, 9.09 13.21 M9.09 13.21 C9.09 13.21, 9.09 13.21, 9.09 13.21 M3.89 23.88 C8.14 20.41, 13.89 11.88, 18.34 8.42 M4.17 23.75 C7.36 20.36, 11.24 16.57, 20.67 6.87 M1.31 35.75 C8.84 26.34, 16.98 16.14, 31.65 1.86 M-0.1 34.95 C11.01 22.47, 20.72 10.77, 29.71 1.24 M1.61 39.78 C13.43 27.06, 26.69 8.95, 36.37 -0.27 M2.59 39.62 C8.65 32.38, 15.63 24.11, 34.41 2.43 M2.94 45.29 C15.72 31.11, 28.11 13.05, 38.48 1.08 M2.63 45.77 C17.42 28.91, 32.68 11.46, 40.02 0.93 M2.8 49.1 C17.33 36.22, 25.4 22.51, 43.75 3.69 M4.37 49.34 C19.03 33.95, 33.28 15.84, 44.81 2.66 M5.4 54.93 C20.01 34.45, 37.78 19.68, 50.81 4.14 M4.6 53.38 C21.42 33.87, 38.67 15.87, 50.38 2.85 M6.85 58.61 C20.43 44.3, 32.05 30.22, 55.05 3.93 M6.96 59.03 C23.92 40.1, 38.97 20.81, 54.73 2.01 M9.59 62.57 C28.04 41.53, 47.62 18.31, 58.56 5.89 M9.62 59.9 C27.29 40.61, 44.03 22.03, 57.38 6.09 M15.18 62.87 C25.4 50.12, 31.69 41.87, 59.85 9.47 M13.1 62.84 C28.84 45.4, 44.2 26.85, 60.29 7.63 M14.61 67.2 C35.03 44.21, 53.31 20.89, 63.85 11.71 M15.94 65.81 C33.87 44.95, 50.44 26.27, 65.04 10.53 M20.23 69.55 C34.99 50.35, 45.56 38.81, 68.43 14.3 M19.72 68.32 C38.59 47.24, 56.2 25.71, 68.51 12.91 M23.73 70.6 C39.2 49.31, 57.67 30.46, 69.59 16.78 M22.23 69.67 C36.36 54.77, 48.68 41.53, 71.35 16.14 M28.53 70.58 C37.22 61.09, 50.41 46.6, 73.35 18.05 M27.09 71.58 C40.78 56.47, 54.62 41.55, 72.93 18.16 M29.76 71.88 C44.86 58.53, 59.91 42.04, 74.97 23.87 M30.87 72.65 C44.21 58.29, 57.93 42.31, 75.85 22.77 M35.43 71.71 C47.51 60.09, 59.82 44.06, 77.42 29.39 M35.5 72.81 C49.6 57.88, 63.4 41.4, 75.53 28.01 M41.66 72.95 C53.78 58.98, 65.52 47.33, 77.97 31.31 M40.64 73.99 C55.53 59.03, 68.97 42.25, 78.05 32.1 M45.21 73.53 C57.65 60.81, 68.4 47.05, 79.47 34.78 M45.42 75.32 C57.11 60.96, 68.46 47.67, 78.56 36.17 M49.32 74.29 C56.76 68.77, 65.65 56.68, 78.75 42.22 M49.45 74.8 C60.5 63.44, 71.44 50.5, 80.89 40.88 M62.2 70.11 C66.01 65.49, 67.28 62.36, 76.05 51.54 M62.55 68.21 C64.75 63.8, 68.79 61.32, 76.17 52.48" stroke="#be4bdb" stroke-width="0.5" fill="none"></path><path d="M54.53 2.33 C61.43 4.32, 68.2 10.5, 72.16 16.63 C76.11 22.76, 78.69 31.53, 78.25 39.11 C77.8 46.69, 74.3 56.19, 69.49 62.12 C64.68 68.05, 56.68 73.07, 49.38 74.67 C42.08 76.28, 32.87 74.47, 25.69 71.74 C18.51 69.01, 10.51 64.38, 6.3 58.29 C2.1 52.21, 0.04 42.71, 0.46 35.24 C0.89 27.78, 4.01 19.23, 8.84 13.5 C13.66 7.78, 21.14 2.24, 29.43 0.89 C37.73 -0.46, 53.09 4.31, 58.62 5.38 C64.15 6.46, 63.02 6.92, 62.61 7.32 M46.05 0.58 C53.06 1.21, 62.62 5.59, 68.02 10.95 C73.41 16.31, 77.44 25.45, 78.4 32.77 C79.36 40.08, 77.7 48.6, 73.76 54.82 C69.82 61.05, 61.76 66.86, 54.76 70.12 C47.76 73.38, 39.15 75.48, 31.77 74.4 C24.4 73.33, 15.68 69.1, 10.53 63.66 C5.38 58.22, 1.8 49.03, 0.86 41.74 C-0.08 34.45, 1.39 26.36, 4.88 19.9 C8.37 13.44, 14.96 6.42, 21.78 2.98 C28.6 -0.46, 41.49 -0.71, 45.82 -0.75 C50.16 -0.78, 47.47 2.05, 47.8 2.77" stroke="#000000" stroke-width="1" fill="none"></path></g><g transform="translate(176.96000245572066 419.0859375) rotate(0 34.5 12.5)"><text x="34.5" y="18" font-family="Virgil, Segoe UI Emoji" font-size="20px" fill="#000000" text-anchor="middle" style="white-space: pre;" direction="ltr">User</text></g><g stroke-linecap="round"><g transform="translate(211.93028735314476 389.8149067664806) rotate(0 0.2893172442279024 -47.330741084092665)"><path d="M-0.91 -0.54 C-0.7 -16.42, 1.2 -78.97, 1.49 -94.73 M0.81 1.79 C0.84 -14.48, 0.11 -79.96, 0.53 -96.45" stroke="#000000" stroke-width="1" fill="none"></path></g><g transform="translate(211.93028735314476 389.8149067664806) rotate(0 0.2893172442279024 -47.330741084092665)"><path d="M9.75 -68.25 C8.59 -78.42, 4.83 -86.1, -1.42 -96.24 M11.39 -68.69 C8.14 -74.47, 5.55 -82.42, 0.12 -97.29" stroke="#000000" stroke-width="1" fill="none"></path></g><g transform="translate(211.93028735314476 389.8149067664806) rotate(0 0.2893172442279024 -47.330741084092665)"><path d="M-10.77 -68.35 C-5.42 -78.33, -2.67 -85.98, -1.42 -96.24 M-9.13 -68.79 C-7.49 -74.44, -5.2 -82.37, 0.12 -97.29" stroke="#000000" stroke-width="1" fill="none"></path></g></g><g stroke-linecap="round"><g transform="translate(135.52250245572066 239.4296875) rotate(0 -62.763079353352055 -89.67417315057943)"><path d="M0 1.11 C-18.42 -3.01, -92.18 0.43, -110.85 -25.33 C-129.53 -51.08, -129.67 -127.9, -112.07 -153.42 C-94.47 -178.95, -23.05 -174.01, -5.26 -178.46 M-1.46 0.65 C-19.92 -3.25, -92.77 1.54, -111.28 -23.96 C-129.8 -49.46, -130.32 -126.28, -112.55 -152.37 C-94.77 -178.45, -22.33 -175.86, -4.64 -180.46" stroke="#000000" stroke-width="1" fill="none"></path></g><g transform="translate(135.52250245572066 239.4296875) rotate(0 -62.763079353352055 -89.67417315057943)"><path d="M-29.64 -165.42 C-24.71 -169.77, -17.75 -173.12, -2.88 -179.35 M-31.01 -167.89 C-23.75 -171.4, -17.5 -174.29, -5.6 -179.97" stroke="#000000" stroke-width="1" fill="none"></path></g><g transform="translate(135.52250245572066 239.4296875) rotate(0 -62.763079353352055 -89.67417315057943)"><path d="M-31.96 -185.81 C-26.51 -184.66, -18.92 -182.5, -2.88 -179.35 M-33.34 -188.28 C-25.59 -186.62, -18.75 -184.34, -5.6 -179.97" stroke="#000000" stroke-width="1" fill="none"></path></g></g><g transform="translate(21.741252455720655 140.1953125) rotate(0 32 12.5)"><text x="0" y="18" font-family="Virgil, Segoe UI Emoji" font-size="20px" fill="#000000" text-anchor="start" style="white-space: pre;" direction="ltr">Intent</text></g></svg>